{
	"asset":{
		"generator":"Khronos glTF Blender I/O v4.0.44",
		"version":"2.0"
	},
	"scene":0,
	"scenes":[
		{
			"name":"Scene",
			"nodes":[
				0,
				1,
				2,
				3,
				4,
				5,
				6
			]
		}
	],
	"nodes":[
		{
			"mesh":0,
			"name":"d20"
		},
		{
			"mesh":1,
			"name":"d12"
		},
		{
			"mesh":2,
			"name":"d4"
		},
		{
			"mesh":3,
			"name":"d8"
		},
		{
			"mesh":4,
			"name":"d10"
		},
		{
			"mesh":5,
			"name":"d100"
		},
		{
			"mesh":6,
			"name":"d6"
		}
	],
	"materials":[
		{
			"doubleSided":true,
			"name":"Material.001",
			"pbrMetallicRoughness":{
				"baseColorTexture":{
					"index":0
				},
				"metallicFactor":0,
				"roughnessFactor":0.5
			}
		},
		{
			"doubleSided":true,
			"name":"Material.002",
			"pbrMetallicRoughness":{
				"baseColorTexture":{
					"index":1
				},
				"metallicFactor":0,
				"roughnessFactor":0.5
			}
		},
		{
			"doubleSided":true,
			"name":"Material.003",
			"pbrMetallicRoughness":{
				"baseColorTexture":{
					"index":2
				},
				"metallicFactor":0,
				"roughnessFactor":0.5
			}
		},
		{
			"doubleSided":true,
			"name":"Material.004",
			"pbrMetallicRoughness":{
				"baseColorTexture":{
					"index":3
				},
				"metallicFactor":0,
				"roughnessFactor":0.5
			}
		},
		{
			"doubleSided":true,
			"name":"Material.005",
			"pbrMetallicRoughness":{
				"baseColorTexture":{
					"index":4
				},
				"metallicFactor":0,
				"roughnessFactor":0.5
			}
		},
		{
			"doubleSided":true,
			"name":"Material.006",
			"pbrMetallicRoughness":{
				"baseColorTexture":{
					"index":5
				},
				"metallicFactor":0,
				"roughnessFactor":0.5
			}
		},
		{
			"doubleSided":true,
			"name":"Material.007",
			"pbrMetallicRoughness":{
				"baseColorTexture":{
					"index":6
				},
				"metallicFactor":0,
				"roughnessFactor":0.5
			}
		}
	],
	"meshes":[
		{
			"name":"Icosphere",
			"primitives":[
				{
					"attributes":{
						"POSITION":0,
						"NORMAL":1,
						"TEXCOORD_0":2
					},
					"indices":3,
					"material":0
				}
			]
		},
		{
			"name":"Solid.001",
			"primitives":[
				{
					"attributes":{
						"POSITION":4,
						"NORMAL":5,
						"TEXCOORD_0":6
					},
					"indices":7,
					"material":1
				}
			]
		},
		{
			"name":"Solid.002",
			"primitives":[
				{
					"attributes":{
						"POSITION":8,
						"NORMAL":9,
						"TEXCOORD_0":10
					},
					"indices":11,
					"material":2
				}
			]
		},
		{
			"name":"Solid",
			"primitives":[
				{
					"attributes":{
						"POSITION":12,
						"NORMAL":13,
						"TEXCOORD_0":14
					},
					"indices":15,
					"material":3
				}
			]
		},
		{
			"name":"Cone",
			"primitives":[
				{
					"attributes":{
						"POSITION":16,
						"NORMAL":17,
						"TEXCOORD_0":18
					},
					"indices":19,
					"material":4
				}
			]
		},
		{
			"name":"Cone.001",
			"primitives":[
				{
					"attributes":{
						"POSITION":20,
						"NORMAL":21,
						"TEXCOORD_0":22
					},
					"indices":19,
					"material":5
				}
			]
		},
		{
			"name":"Cube.001",
			"primitives":[
				{
					"attributes":{
						"POSITION":23,
						"NORMAL":24,
						"TEXCOORD_0":25
					},
					"indices":26,
					"material":6
				}
			]
		}
	],
	"textures":[
		{
			"sampler":0,
			"source":0
		},
		{
			"sampler":0,
			"source":1
		},
		{
			"sampler":0,
			"source":2
		},
		{
			"sampler":0,
			"source":3
		},
		{
			"sampler":0,
			"source":4
		},
		{
			"sampler":0,
			"source":5
		},
		{
			"sampler":0,
			"source":6
		}
	],
	"images":[
		{
			"mimeType":"image/png",
			"name":"d20_base_color",
			"uri":"d20_base_color.png"
		},
		{
			"mimeType":"image/png",
			"name":"d12_base_color",
			"uri":"d12_base_color.png"
		},
		{
			"mimeType":"image/png",
			"name":"d4_base_color",
			"uri":"d4_base_color.png"
		},
		{
			"mimeType":"image/png",
			"name":"d8_base_color",
			"uri":"d8_base_color.png"
		},
		{
			"mimeType":"image/png",
			"name":"d10_base_color",
			"uri":"d10_base_color.png"
		},
		{
			"mimeType":"image/png",
			"name":"d100_base_color",
			"uri":"d100_base_color.png"
		},
		{
			"mimeType":"image/png",
			"name":"d6_base_color",
			"uri":"d6_base_color.png"
		}
	],
	"accessors":[
		{
			"bufferView":0,
			"componentType":5126,
			"count":60,
			"max":[
				1.0554214715957642,
				1.1799999475479126,
				1.0037552118301392
			],
			"min":[
				-1.0554214715957642,
				-1.1799999475479126,
				-1.0037552118301392
			],
			"type":"VEC3"
		},
		{
			"bufferView":1,
			"componentType":5126,
			"count":60,
			"type":"VEC3"
		},
		{
			"bufferView":2,
			"componentType":5126,
			"count":60,
			"type":"VEC2"
		},
		{
			"bufferView":3,
			"componentType":5123,
			"count":60,
			"type":"SCALAR"
		},
		{
			"bufferView":4,
			"componentType":5126,
			"count":60,
			"max":[
				1.0649564266204834,
				1.0649564266204834,
				1.0649564266204834
			],
			"min":[
				-1.0649564266204834,
				-1.0649564266204834,
				-1.0649564266204834
			],
			"type":"VEC3"
		},
		{
			"bufferView":5,
			"componentType":5126,
			"count":60,
			"type":"VEC3"
		},
		{
			"bufferView":6,
			"componentType":5126,
			"count":60,
			"type":"VEC2"
		},
		{
			"bufferView":7,
			"componentType":5123,
			"count":108,
			"type":"SCALAR"
		},
		{
			"bufferView":8,
			"componentType":5126,
			"count":12,
			"max":[
				1.225651502609253,
				1.299999713897705,
				1.0614453554153442
			],
			"min":[
				-0.6128257513046265,
				-0.43333324790000916,
				-1.0614453554153442
			],
			"type":"VEC3"
		},
		{
			"bufferView":9,
			"componentType":5126,
			"count":12,
			"type":"VEC3"
		},
		{
			"bufferView":10,
			"componentType":5126,
			"count":12,
			"type":"VEC2"
		},
		{
			"bufferView":11,
			"componentType":5123,
			"count":12,
			"type":"SCALAR"
		},
		{
			"bufferView":12,
			"componentType":5126,
			"count":24,
			"max":[
				1.1499998569488525,
				1.1499998569488525,
				1.1499998569488525
			],
			"min":[
				-1.1499998569488525,
				-1.1499998569488525,
				-1.1499998569488525
			],
			"type":"VEC3"
		},
		{
			"bufferView":13,
			"componentType":5126,
			"count":24,
			"type":"VEC3"
		},
		{
			"bufferView":14,
			"componentType":5126,
			"count":24,
			"type":"VEC2"
		},
		{
			"bufferView":15,
			"componentType":5123,
			"count":24,
			"type":"SCALAR"
		},
		{
			"bufferView":16,
			"componentType":5126,
			"count":40,
			"max":[
				1.0461622476577759,
				1.100000023841858,
				1.100000023841858
			],
			"min":[
				-1.0461622476577759,
				-1.100000023841858,
				-1.0999999046325684
			],
			"type":"VEC3"
		},
		{
			"bufferView":17,
			"componentType":5126,
			"count":40,
			"type":"VEC3"
		},
		{
			"bufferView":18,
			"componentType":5126,
			"count":40,
			"type":"VEC2"
		},
		{
			"bufferView":19,
			"componentType":5123,
			"count":60,
			"type":"SCALAR"
		},
		{
			"bufferView":20,
			"componentType":5126,
			"count":40,
			"max":[
				1.0461622476577759,
				1.100000023841858,
				1.100000023841858
			],
			"min":[
				-1.0461622476577759,
				-1.100000023841858,
				-1.0999999046325684
			],
			"type":"VEC3"
		},
		{
			"bufferView":21,
			"componentType":5126,
			"count":40,
			"type":"VEC3"
		},
		{
			"bufferView":22,
			"componentType":5126,
			"count":40,
			"type":"VEC2"
		},
		{
			"bufferView":23,
			"componentType":5126,
			"count":24,
			"max":[
				0.75,
				0.75,
				0.75
			],
			"min":[
				-0.75,
				-0.75,
				-0.75
			],
			"type":"VEC3"
		},
		{
			"bufferView":24,
			"componentType":5126,
			"count":24,
			"type":"VEC3"
		},
		{
			"bufferView":25,
			"componentType":5126,
			"count":24,
			"type":"VEC2"
		},
		{
			"bufferView":26,
			"componentType":5123,
			"count":36,
			"type":"SCALAR"
		}
	],
	"bufferViews":[
		{
			"buffer":0,
			"byteLength":720,
			"byteOffset":0,
			"target":34962
		},
		{
			"buffer":0,
			"byteLength":720,
			"byteOffset":720,
			"target":34962
		},
		{
			"buffer":0,
			"byteLength":480,
			"byteOffset":1440,
			"target":34962
		},
		{
			"buffer":0,
			"byteLength":120,
			"byteOffset":1920,
			"target":34963
		},
		{
			"buffer":0,
			"byteLength":720,
			"byteOffset":2040,
			"target":34962
		},
		{
			"buffer":0,
			"byteLength":720,
			"byteOffset":2760,
			"target":34962
		},
		{
			"buffer":0,
			"byteLength":480,
			"byteOffset":3480,
			"target":34962
		},
		{
			"buffer":0,
			"byteLength":216,
			"byteOffset":3960,
			"target":34963
		},
		{
			"buffer":0,
			"byteLength":144,
			"byteOffset":4176,
			"target":34962
		},
		{
			"buffer":0,
			"byteLength":144,
			"byteOffset":4320,
			"target":34962
		},
		{
			"buffer":0,
			"byteLength":96,
			"byteOffset":4464,
			"target":34962
		},
		{
			"buffer":0,
			"byteLength":24,
			"byteOffset":4560,
			"target":34963
		},
		{
			"buffer":0,
			"byteLength":288,
			"byteOffset":4584,
			"target":34962
		},
		{
			"buffer":0,
			"byteLength":288,
			"byteOffset":4872,
			"target":34962
		},
		{
			"buffer":0,
			"byteLength":192,
			"byteOffset":5160,
			"target":34962
		},
		{
			"buffer":0,
			"byteLength":48,
			"byteOffset":5352,
			"target":34963
		},
		{
			"buffer":0,
			"byteLength":480,
			"byteOffset":5400,
			"target":34962
		},
		{
			"buffer":0,
			"byteLength":480,
			"byteOffset":5880,
			"target":34962
		},
		{
			"buffer":0,
			"byteLength":320,
			"byteOffset":6360,
			"target":34962
		},
		{
			"buffer":0,
			"byteLength":120,
			"byteOffset":6680,
			"target":34963
		},
		{
			"buffer":0,
			"byteLength":480,
			"byteOffset":6800,
			"target":34962
		},
		{
			"buffer":0,
			"byteLength":480,
			"byteOffset":7280,
			"target":34962
		},
		{
			"buffer":0,
			"byteLength":320,
			"byteOffset":7760,
			"target":34962
		},
		{
			"buffer":0,
			"byteLength":288,
			"byteOffset":8080,
			"target":34962
		},
		{
			"buffer":0,
			"byteLength":288,
			"byteOffset":8368,
			"target":34962
		},
		{
			"buffer":0,
			"byteLength":192,
			"byteOffset":8656,
			"target":34962
		},
		{
			"buffer":0,
			"byteLength":72,
			"byteOffset":8848,
			"target":34963
		}
	],
	"samplers":[
		{
			"magFilter":9729,
			"minFilter":9987
		}
	],
	"buffers":[
		{
			"byteLength":8920,
			"uri":"dice.bin"
		}
	]
}
